%TF.GenerationSoftware,KiCad,Pcbnew,9.0.6*%
%TF.CreationDate,2026-01-24T18:36:13+02:00*%
%TF.ProjectId,led chaser,6c656420-6368-4617-9365-722e6b696361,rev?*%
%TF.SameCoordinates,Original*%
%TF.FileFunction,Soldermask,Top*%
%TF.FilePolarity,Negative*%
%FSLAX46Y46*%
G04 Gerber Fmt 4.6, Leading zero omitted, Abs format (unit mm)*
G04 Created by KiCad (PCBNEW 9.0.6) date 2026-01-24 18:36:13*
%MOMM*%
%LPD*%
G01*
G04 APERTURE LIST*
G04 Aperture macros list*
%AMRoundRect*
0 Rectangle with rounded corners*
0 $1 Rounding radius*
0 $2 $3 $4 $5 $6 $7 $8 $9 X,Y pos of 4 corners*
0 Add a 4 corners polygon primitive as box body*
4,1,4,$2,$3,$4,$5,$6,$7,$8,$9,$2,$3,0*
0 Add four circle primitives for the rounded corners*
1,1,$1+$1,$2,$3*
1,1,$1+$1,$4,$5*
1,1,$1+$1,$6,$7*
1,1,$1+$1,$8,$9*
0 Add four rect primitives between the rounded corners*
20,1,$1+$1,$2,$3,$4,$5,0*
20,1,$1+$1,$4,$5,$6,$7,0*
20,1,$1+$1,$6,$7,$8,$9,0*
20,1,$1+$1,$8,$9,$2,$3,0*%
G04 Aperture macros list end*
%ADD10C,1.600000*%
%ADD11R,1.800000X1.800000*%
%ADD12C,1.800000*%
%ADD13RoundRect,0.250000X-0.550000X-0.550000X0.550000X-0.550000X0.550000X0.550000X-0.550000X0.550000X0*%
%ADD14C,1.440000*%
%ADD15R,1.700000X1.700000*%
%ADD16R,1.295400X1.295400*%
%ADD17C,1.295400*%
G04 APERTURE END LIST*
D10*
%TO.C,R1*%
X161200000Y-119620000D03*
X161200000Y-112000000D03*
%TD*%
D11*
%TO.C,D3*%
X142330000Y-97600000D03*
D12*
X144870000Y-97600000D03*
%TD*%
D13*
%TO.C,C1 0.01 uF*%
X138000000Y-111000000D03*
D10*
X140000000Y-111000000D03*
%TD*%
D14*
%TO.C,RV1*%
X177940000Y-107920000D03*
X175400000Y-110460000D03*
X172860000Y-107920000D03*
%TD*%
D15*
%TO.C,GND*%
X157200000Y-111800000D03*
%TD*%
D11*
%TO.C,D7*%
X182130000Y-106000000D03*
D12*
X184670000Y-106000000D03*
%TD*%
D11*
%TO.C,D6*%
X165860000Y-109400000D03*
D12*
X168400000Y-109400000D03*
%TD*%
D15*
%TO.C,5V*%
X153600000Y-111800000D03*
%TD*%
D11*
%TO.C,D10*%
X144130000Y-149600000D03*
D12*
X146670000Y-149600000D03*
%TD*%
D11*
%TO.C,D5*%
X146060000Y-112200000D03*
D12*
X148600000Y-112200000D03*
%TD*%
D11*
%TO.C,D9*%
X156260000Y-134800000D03*
D12*
X158800000Y-134800000D03*
%TD*%
D11*
%TO.C,D4*%
X127530000Y-114600000D03*
D12*
X130070000Y-114600000D03*
%TD*%
D13*
%TO.C,C2 1uF*%
X164644888Y-123800000D03*
D10*
X166644888Y-123800000D03*
%TD*%
%TO.C,R2 470 Ohm*%
X149000000Y-97990000D03*
X149000000Y-105610000D03*
%TD*%
D11*
%TO.C,D2*%
X155400000Y-81800000D03*
D12*
X157940000Y-81800000D03*
%TD*%
D13*
%TO.C,U2*%
X149800000Y-120180000D03*
D10*
X149800000Y-122720000D03*
X149800000Y-125260000D03*
X149800000Y-127800000D03*
X157420000Y-127800000D03*
X157420000Y-125260000D03*
X157420000Y-122720000D03*
X157420000Y-120180000D03*
%TD*%
D11*
%TO.C,D1*%
X163930000Y-72200000D03*
D12*
X166470000Y-72200000D03*
%TD*%
D16*
%TO.C,U1*%
X152790000Y-87910000D03*
D17*
X152790000Y-90450000D03*
X152790000Y-92990000D03*
X152790000Y-95530000D03*
X152790000Y-98070000D03*
X152790000Y-100610000D03*
X152790000Y-103150000D03*
X152790000Y-105690000D03*
X160410000Y-105690000D03*
X160410000Y-103150000D03*
X160410000Y-100610000D03*
X160410000Y-98070000D03*
X160410000Y-95530000D03*
X160410000Y-92990000D03*
X160410000Y-90450000D03*
X160410000Y-87910000D03*
%TD*%
D11*
%TO.C,D8*%
X170660000Y-118200000D03*
D12*
X173200000Y-118200000D03*
%TD*%
M02*
