M48
; DRILL file {KiCad 9.0.6} date 2026-01-24T18:36:08+0200
; FORMAT={-:-/ absolute / metric / decimal}
; #@! TF.CreationDate,2026-01-24T18:36:08+02:00
; #@! TF.GenerationSoftware,Kicad,Pcbnew,9.0.6
; #@! TF.FileFunction,Plated,1,2,PTH
FMAT,2
METRIC
; #@! TA.AperFunction,Plated,PTH,ViaDrill
T1C0.100
; #@! TA.AperFunction,Plated,PTH,ViaDrill
T2C0.300
; #@! TA.AperFunction,Plated,PTH,ComponentDrill
T3C0.787
; #@! TA.AperFunction,Plated,PTH,ComponentDrill
T4C0.800
; #@! TA.AperFunction,Plated,PTH,ComponentDrill
T5C0.900
; #@! TA.AperFunction,Plated,PTH,ComponentDrill
T6C1.000
%
G90
G05
T1
X166.4Y-118.2
T2
X146.839Y-119.232
X149.6Y-118.2
X154.2Y-107.6
X154.2Y-108.8
X154.6Y-97.6
X154.6Y-103.8
X156.0Y-102.8
X157.045Y-102.716
X157.6Y-103.8
X157.8Y-96.0
X158.4Y-97.4
X158.861Y-95.8
X159.2Y-92.6
X159.2Y-119.4
X159.4Y-122.8
X163.4Y-111.6
X164.0Y-116.0
X166.0Y-106.2
X169.6Y-114.0
T3
X152.79Y-87.91
X152.79Y-90.45
X152.79Y-92.99
X152.79Y-95.53
X152.79Y-98.07
X152.79Y-100.61
X152.79Y-103.15
X152.79Y-105.69
X160.41Y-87.91
X160.41Y-90.45
X160.41Y-92.99
X160.41Y-95.53
X160.41Y-98.07
X160.41Y-100.61
X160.41Y-103.15
X160.41Y-105.69
T4
X138.0Y-111.0
X140.0Y-111.0
X149.0Y-97.99
X149.0Y-105.61
X149.8Y-120.18
X149.8Y-122.72
X149.8Y-125.26
X149.8Y-127.8
X157.42Y-120.18
X157.42Y-122.72
X157.42Y-125.26
X157.42Y-127.8
X161.2Y-112.0
X161.2Y-119.62
X164.645Y-123.8
X166.645Y-123.8
X172.86Y-107.92
X175.4Y-110.46
X177.94Y-107.92
T5
X127.53Y-114.6
X130.07Y-114.6
X142.33Y-97.6
X144.13Y-149.6
X144.87Y-97.6
X146.06Y-112.2
X146.67Y-149.6
X148.6Y-112.2
X155.4Y-81.8
X156.26Y-134.8
X157.94Y-81.8
X158.8Y-134.8
X163.93Y-72.2
X165.86Y-109.4
X166.47Y-72.2
X168.4Y-109.4
X170.66Y-118.2
X173.2Y-118.2
X182.13Y-106.0
X184.67Y-106.0
T6
X153.6Y-111.8
X157.2Y-111.8
M30
