%TF.GenerationSoftware,KiCad,Pcbnew,9.0.6*%
%TF.CreationDate,2026-01-24T18:36:13+02:00*%
%TF.ProjectId,led chaser,6c656420-6368-4617-9365-722e6b696361,rev?*%
%TF.SameCoordinates,Original*%
%TF.FileFunction,Copper,L2,Bot*%
%TF.FilePolarity,Positive*%
%FSLAX46Y46*%
G04 Gerber Fmt 4.6, Leading zero omitted, Abs format (unit mm)*
G04 Created by KiCad (PCBNEW 9.0.6) date 2026-01-24 18:36:13*
%MOMM*%
%LPD*%
G01*
G04 APERTURE LIST*
G04 Aperture macros list*
%AMRoundRect*
0 Rectangle with rounded corners*
0 $1 Rounding radius*
0 $2 $3 $4 $5 $6 $7 $8 $9 X,Y pos of 4 corners*
0 Add a 4 corners polygon primitive as box body*
4,1,4,$2,$3,$4,$5,$6,$7,$8,$9,$2,$3,0*
0 Add four circle primitives for the rounded corners*
1,1,$1+$1,$2,$3*
1,1,$1+$1,$4,$5*
1,1,$1+$1,$6,$7*
1,1,$1+$1,$8,$9*
0 Add four rect primitives between the rounded corners*
20,1,$1+$1,$2,$3,$4,$5,0*
20,1,$1+$1,$4,$5,$6,$7,0*
20,1,$1+$1,$6,$7,$8,$9,0*
20,1,$1+$1,$8,$9,$2,$3,0*%
G04 Aperture macros list end*
%TA.AperFunction,ComponentPad*%
%ADD10C,1.600000*%
%TD*%
%TA.AperFunction,ComponentPad*%
%ADD11R,1.800000X1.800000*%
%TD*%
%TA.AperFunction,ComponentPad*%
%ADD12C,1.800000*%
%TD*%
%TA.AperFunction,ComponentPad*%
%ADD13RoundRect,0.250000X-0.550000X-0.550000X0.550000X-0.550000X0.550000X0.550000X-0.550000X0.550000X0*%
%TD*%
%TA.AperFunction,ComponentPad*%
%ADD14C,1.440000*%
%TD*%
%TA.AperFunction,ComponentPad*%
%ADD15R,1.700000X1.700000*%
%TD*%
%TA.AperFunction,ComponentPad*%
%ADD16R,1.295400X1.295400*%
%TD*%
%TA.AperFunction,ComponentPad*%
%ADD17C,1.295400*%
%TD*%
%TA.AperFunction,ViaPad*%
%ADD18C,0.400000*%
%TD*%
%TA.AperFunction,ViaPad*%
%ADD19C,0.600000*%
%TD*%
%TA.AperFunction,ViaPad*%
%ADD20C,0.300000*%
%TD*%
%TA.AperFunction,Conductor*%
%ADD21C,0.200000*%
%TD*%
G04 APERTURE END LIST*
D10*
%TO.P,R1,1*%
%TO.N,+5v*%
X161200000Y-119620000D03*
%TO.P,R1,2*%
%TO.N,Net-(U2-DIS)*%
X161200000Y-112000000D03*
%TD*%
D11*
%TO.P,D3,1,K*%
%TO.N,Net-(D1-K)*%
X142330000Y-97600000D03*
D12*
%TO.P,D3,2,A*%
%TO.N,Net-(D3-A)*%
X144870000Y-97600000D03*
%TD*%
D13*
%TO.P,C1 0.01 uF,1*%
%TO.N,GND*%
X138000000Y-111000000D03*
D10*
%TO.P,C1 0.01 uF,2*%
%TO.N,Net-(U2-CV)*%
X140000000Y-111000000D03*
%TD*%
D14*
%TO.P,RV1,1,1*%
%TO.N,Net-(U2-DIS)*%
X177940000Y-107920000D03*
%TO.P,RV1,2,2*%
X175400000Y-110460000D03*
%TO.P,RV1,3,3*%
%TO.N,TR*%
X172860000Y-107920000D03*
%TD*%
D15*
%TO.P,GND,1,1*%
%TO.N,GND*%
X157200000Y-111800000D03*
%TD*%
D11*
%TO.P,D7,1,K*%
%TO.N,Net-(D1-K)*%
X182130000Y-106000000D03*
D12*
%TO.P,D7,2,A*%
%TO.N,Net-(D7-A)*%
X184670000Y-106000000D03*
%TD*%
D11*
%TO.P,D6,1,K*%
%TO.N,Net-(D1-K)*%
X165860000Y-109400000D03*
D12*
%TO.P,D6,2,A*%
%TO.N,Net-(D6-A)*%
X168400000Y-109400000D03*
%TD*%
D15*
%TO.P,5V,1,1*%
%TO.N,+5v*%
X153600000Y-111800000D03*
%TD*%
D11*
%TO.P,D10,1,K*%
%TO.N,Net-(D1-K)*%
X144130000Y-149600000D03*
D12*
%TO.P,D10,2,A*%
%TO.N,Net-(D10-A)*%
X146670000Y-149600000D03*
%TD*%
D11*
%TO.P,D5,1,K*%
%TO.N,Net-(D1-K)*%
X146060000Y-112200000D03*
D12*
%TO.P,D5,2,A*%
%TO.N,Net-(D5-A)*%
X148600000Y-112200000D03*
%TD*%
D11*
%TO.P,D9,1,K*%
%TO.N,Net-(D1-K)*%
X156260000Y-134800000D03*
D12*
%TO.P,D9,2,A*%
%TO.N,Net-(D9-A)*%
X158800000Y-134800000D03*
%TD*%
D11*
%TO.P,D4,1,K*%
%TO.N,Net-(D1-K)*%
X127530000Y-114600000D03*
D12*
%TO.P,D4,2,A*%
%TO.N,Net-(D4-A)*%
X130070000Y-114600000D03*
%TD*%
D13*
%TO.P,C2 1uF,1*%
%TO.N,TR*%
X164644888Y-123800000D03*
D10*
%TO.P,C2 1uF,2*%
%TO.N,GND*%
X166644888Y-123800000D03*
%TD*%
%TO.P,R2 470 Ohm,1*%
%TO.N,Net-(D1-K)*%
X149000000Y-97990000D03*
%TO.P,R2 470 Ohm,2*%
%TO.N,GND*%
X149000000Y-105610000D03*
%TD*%
D11*
%TO.P,D2,1,K*%
%TO.N,Net-(D1-K)*%
X155400000Y-81800000D03*
D12*
%TO.P,D2,2,A*%
%TO.N,Net-(D2-A)*%
X157940000Y-81800000D03*
%TD*%
D13*
%TO.P,U2,1,GND*%
%TO.N,GND*%
X149800000Y-120180000D03*
D10*
%TO.P,U2,2,TR*%
%TO.N,TR*%
X149800000Y-122720000D03*
%TO.P,U2,3,Q*%
%TO.N,OUT*%
X149800000Y-125260000D03*
%TO.P,U2,4,R*%
%TO.N,+5v*%
X149800000Y-127800000D03*
%TO.P,U2,5,CV*%
%TO.N,Net-(U2-CV)*%
X157420000Y-127800000D03*
%TO.P,U2,6,THR*%
%TO.N,TR*%
X157420000Y-125260000D03*
%TO.P,U2,7,DIS*%
%TO.N,Net-(U2-DIS)*%
X157420000Y-122720000D03*
%TO.P,U2,8,VCC*%
%TO.N,+5v*%
X157420000Y-120180000D03*
%TD*%
D11*
%TO.P,D1,1,K*%
%TO.N,Net-(D1-K)*%
X163930000Y-72200000D03*
D12*
%TO.P,D1,2,A*%
%TO.N,Net-(D1-A)*%
X166470000Y-72200000D03*
%TD*%
D16*
%TO.P,U1,1,Q5*%
%TO.N,Net-(D6-A)*%
X152790000Y-87910000D03*
D17*
%TO.P,U1,2,Q1*%
%TO.N,Net-(D2-A)*%
X152790000Y-90450000D03*
%TO.P,U1,3,Q0*%
%TO.N,Net-(D1-A)*%
X152790000Y-92990000D03*
%TO.P,U1,4,Q2*%
%TO.N,Net-(D3-A)*%
X152790000Y-95530000D03*
%TO.P,U1,5,Q6*%
%TO.N,Net-(D7-A)*%
X152790000Y-98070000D03*
%TO.P,U1,6,Q7*%
%TO.N,Net-(D8-A)*%
X152790000Y-100610000D03*
%TO.P,U1,7,Q3*%
%TO.N,Net-(D4-A)*%
X152790000Y-103150000D03*
%TO.P,U1,8,VSS*%
%TO.N,GND*%
X152790000Y-105690000D03*
%TO.P,U1,9,Q8*%
%TO.N,Net-(D9-A)*%
X160410000Y-105690000D03*
%TO.P,U1,10,Q4*%
%TO.N,Net-(D5-A)*%
X160410000Y-103150000D03*
%TO.P,U1,11,Q9*%
%TO.N,Net-(D10-A)*%
X160410000Y-100610000D03*
%TO.P,U1,12,Cout*%
%TO.N,unconnected-(U1-Cout-Pad12)*%
X160410000Y-98070000D03*
%TO.P,U1,13,CKEN*%
%TO.N,GND*%
X160410000Y-95530000D03*
%TO.P,U1,14,CLK*%
%TO.N,OUT*%
X160410000Y-92990000D03*
%TO.P,U1,15,Reset*%
%TO.N,GND*%
X160410000Y-90450000D03*
%TO.P,U1,16,VDD*%
%TO.N,+5v*%
X160410000Y-87910000D03*
%TD*%
D11*
%TO.P,D8,1,K*%
%TO.N,Net-(D1-K)*%
X170660000Y-118200000D03*
D12*
%TO.P,D8,2,A*%
%TO.N,Net-(D8-A)*%
X173200000Y-118200000D03*
%TD*%
D18*
%TO.N,GND*%
X158400000Y-97400000D03*
X154600000Y-103800000D03*
X158861300Y-95800000D03*
%TO.N,Net-(D1-K)*%
X146838886Y-119231520D03*
D19*
%TO.N,Net-(D5-A)*%
X154200000Y-107600000D03*
D18*
X156000000Y-102800000D03*
X157600000Y-103800000D03*
%TO.N,Net-(D7-A)*%
X166000000Y-106200000D03*
X154600000Y-97600000D03*
%TO.N,Net-(D8-A)*%
X163400000Y-111600000D03*
%TO.N,Net-(D9-A)*%
X159200000Y-119400000D03*
X159400000Y-122800000D03*
D20*
%TO.N,Net-(U2-DIS)*%
X166400000Y-118200000D03*
D18*
X169600000Y-114000000D03*
X164000000Y-116000000D03*
%TO.N,OUT*%
X149600000Y-118200000D03*
X157800000Y-96000000D03*
X159200000Y-92600000D03*
D19*
X154200000Y-108800000D03*
D18*
X157044600Y-102716385D03*
%TD*%
D21*
%TO.N,GND*%
X154600000Y-103800000D02*
X154600000Y-101200000D01*
X160140000Y-95800000D02*
X160410000Y-95530000D01*
X154600000Y-101200000D02*
X158400000Y-97400000D01*
X158861300Y-95800000D02*
X160140000Y-95800000D01*
%TO.N,Net-(D1-K)*%
X146838886Y-119231520D02*
X146924668Y-119145738D01*
X146060000Y-100930000D02*
X146060000Y-112200000D01*
X127530000Y-114600000D02*
X129930000Y-112200000D01*
X146924668Y-119145738D02*
X146924668Y-113064668D01*
X129930000Y-112200000D02*
X146060000Y-112200000D01*
X149000000Y-97990000D02*
X146060000Y-100930000D01*
X146924668Y-113064668D02*
X146060000Y-112200000D01*
%TO.N,Net-(D1-A)*%
X166470000Y-79310000D02*
X152790000Y-92990000D01*
X166470000Y-72200000D02*
X166470000Y-79310000D01*
%TO.N,Net-(D3-A)*%
X146940000Y-95530000D02*
X144870000Y-97600000D01*
X152790000Y-95530000D02*
X146940000Y-95530000D01*
%TO.N,Net-(D5-A)*%
X159760000Y-103800000D02*
X157600000Y-103800000D01*
X155000000Y-106600000D02*
X154200000Y-107400000D01*
X155400000Y-103400000D02*
X155400000Y-106200000D01*
X155400000Y-106200000D02*
X155000000Y-106600000D01*
X156000000Y-102800000D02*
X155400000Y-103400000D01*
X160410000Y-103150000D02*
X159760000Y-103800000D01*
X154200000Y-107400000D02*
X154200000Y-107600000D01*
%TO.N,Net-(D7-A)*%
X163200000Y-105483415D02*
X163200000Y-99200000D01*
X166000000Y-106200000D02*
X163916585Y-106200000D01*
X155600000Y-96600000D02*
X154600000Y-97600000D01*
X160600000Y-96600000D02*
X155600000Y-96600000D01*
X163916585Y-106200000D02*
X163200000Y-105483415D01*
X163200000Y-99200000D02*
X160600000Y-96600000D01*
%TO.N,Net-(D8-A)*%
X163400000Y-113342000D02*
X169459000Y-119401000D01*
X169459000Y-119401000D02*
X171999000Y-119401000D01*
X171999000Y-119401000D02*
X173200000Y-118200000D01*
X163400000Y-111600000D02*
X163400000Y-113342000D01*
%TO.N,Net-(D9-A)*%
X159400000Y-122800000D02*
X158800000Y-123400000D01*
X159200000Y-106900000D02*
X159200000Y-119400000D01*
X158800000Y-123400000D02*
X158800000Y-134800000D01*
X159200000Y-119400000D02*
X159400000Y-119600000D01*
X160410000Y-105690000D02*
X159200000Y-106900000D01*
%TO.N,Net-(D10-A)*%
X162301000Y-102501000D02*
X160410000Y-100610000D01*
X146670000Y-149600000D02*
X162301000Y-133969000D01*
X162301000Y-133969000D02*
X162301000Y-102501000D01*
%TO.N,Net-(U2-DIS)*%
X164400000Y-116000000D02*
X166200000Y-117800000D01*
X173140000Y-110460000D02*
X175400000Y-110460000D01*
X166200000Y-117800000D02*
X166400000Y-118000000D01*
X169600000Y-114000000D02*
X173140000Y-110460000D01*
X164000000Y-116000000D02*
X164400000Y-116000000D01*
X166400000Y-118000000D02*
X166400000Y-118200000D01*
%TO.N,+5v*%
X153550000Y-107330761D02*
X153550000Y-107869239D01*
X153550000Y-108530761D02*
X153550000Y-109069239D01*
X160410000Y-87910000D02*
X153737700Y-94582300D01*
X152283315Y-110249000D02*
X152049000Y-110483315D01*
X152049000Y-110483315D02*
X152049000Y-114809000D01*
X157420000Y-120180000D02*
X160640000Y-120180000D01*
X153550000Y-109069239D02*
X153737700Y-109256939D01*
X153735700Y-110483315D02*
X153501385Y-110249000D01*
X153737700Y-109256939D02*
X153737700Y-111662300D01*
X153501385Y-110249000D02*
X152283315Y-110249000D01*
X149800000Y-127800000D02*
X157420000Y-120180000D01*
X152049000Y-114809000D02*
X157420000Y-120180000D01*
X153650000Y-107969239D02*
X153650000Y-108430761D01*
X153550000Y-107869239D02*
X153650000Y-107969239D01*
X153737700Y-107143061D02*
X153550000Y-107330761D01*
X153737700Y-111662300D02*
X153600000Y-111800000D01*
X153737700Y-94582300D02*
X153737700Y-107143061D01*
X160640000Y-120180000D02*
X161200000Y-119620000D01*
X153650000Y-108430761D02*
X153550000Y-108530761D01*
X153735700Y-111664300D02*
X153735700Y-110483315D01*
X153600000Y-111800000D02*
X153735700Y-111664300D01*
%TO.N,OUT*%
X159200000Y-94280761D02*
X158730761Y-94750000D01*
X149600000Y-118200000D02*
X147740000Y-120060000D01*
X158530761Y-94750000D02*
X157800000Y-95480761D01*
X154200000Y-108800000D02*
X156600000Y-106400000D01*
X159200000Y-92600000D02*
X159200000Y-94280761D01*
X147740000Y-120060000D02*
X147740000Y-124940000D01*
X147740000Y-124940000D02*
X148060000Y-125260000D01*
X156600000Y-103165685D02*
X157044600Y-102721085D01*
X157800000Y-95480761D02*
X157800000Y-96000000D01*
X148060000Y-125260000D02*
X149800000Y-125260000D01*
X156600000Y-106400000D02*
X156600000Y-103165685D01*
X157044600Y-102721085D02*
X157044600Y-102716385D01*
X158730761Y-94750000D02*
X158530761Y-94750000D01*
%TD*%
M02*
